<svg xmlns="http://www.w3.org/2000/svg" viewBox="0 0 828 554" width="828" height="554"><!-- YER TUTUCU — Ece Özgür'ün çizimi değil, bkz. eserler.py --><rect x="0" y="0" width="828" height="230" fill="#1d2733"/><rect x="0" y="230" width="828" height="324" fill="#25323f"/><path d="M0 230 L300 178 L828 214 L828 230 Z" fill="#1a242e"/><rect x="0" y="300" width="828" height="254" fill="#2f3d49"/><rect x="0" y="330" width="828" height="10" fill="#25323f"/><rect x="0" y="386" width="828" height="10" fill="#25323f"/><rect x="0" y="448" width="828" height="10" fill="#25323f"/><rect x="0" y="508" width="828" height="10" fill="#25323f"/><path d="M96 356 L720 296 L730 356 L104 416 Z" fill="#8f8877"/><path d="M96 356 L104 416 L230 404 L226 348 Z" fill="#3d4a56"/><ellipse cx="160" cy="424" rx="120" ry="22" fill="#25323f"/><rect x="0" y="520" width="828" height="34" fill="#0f161d"/><circle cx="686" cy="119.6" r="33.6" fill="#0d1319"/><path d="M672.7 296 L661.5 153.2 L716.0999999999999 153.2 L727.3 296 Z" fill="#0d1319"/></svg>
